# xmcd
# Track frame offsets:
# 150
# 18520
# 34941
# 52035
# 64404
# 83752
# 101221
# 113890
# 129184
# 145828
# 160374
# 178595
# 192014
# 209259
# 222604
# 239324
# 253944
#
# Disc length: 3597 seconds
# Revision: 0
# Processed by: cddbd v1.5.2PL0 Copyright (c) Steve Scherf et al.
# Submitted via: VisiTrax 2.11.2.271 - For more info visit www.synapsa.com
#
DISCID=000e0b11
DTITLE=Trisha Yearwood - Trisha Yearwood Greatest Hits
DYEAR=2007
DGENRE=Country
TTITLE0=She's In Love With The Boy
TTITLE1=Like We Never Had A Broken Heart
TTITLE2=The Woman Before Me
TTITLE3=Wrong Side Of Memphis
TTITLE4=Walkaway Joe
TTITLE5=The Song Remembers When
TTITLE6=Xxx'x And Ooo's (An American Girl)
TTITLE7=Thinkin' About You
TTITLE8=Believe Me Baby (I Lied)
TTITLE9=Everbody Knows
TTITLE10=How Do I Live
TTITLE11=Perfect Love
TTITLE12=There Goes My Baby
TTITLE13=Powerful Thing
TTITLE14=I Would've Loved You Anyway
TTITLE15=Just A Cup Of Coffee
TTITLE16=Nothin' To Lose
EXTD=
EXTT0=
EXTT1=
EXTT2=
EXTT3=
EXTT4=
EXTT5=
EXTT6=
EXTT7=
EXTT8=
EXTT9=
EXTT10=
EXTT11=
EXTT12=
EXTT13=
EXTT14=
EXTT15=
EXTT16=
PLAYORDER=
